HIERARCHY
ROOT Hips
{
    OFFSET 0.000000 0.000000 0.000000
    CHANNELS 6 Xposition Yposition Zposition Zrotation Xrotation Yrotation
    JOINT Spine
    {
        OFFSET -0.000000 14.517291 0.000000
        CHANNELS 3 Zrotation Xrotation Yrotation
        JOINT Spine1
        {
            OFFSET -0.000000 37.558300 0.000000
            CHANNELS 3 Zrotation Xrotation Yrotation
            JOINT Neck
            {
                OFFSET -0.000000 37.404057 3.400369
                CHANNELS 3 Zrotation Xrotation Yrotation
                JOINT Head
                {
                    OFFSET -0.000000 24.785618 -3.540803
                    CHANNELS 3 Zrotation Xrotation Yrotation
                    End Site
                    {
                        OFFSET -0.000000 35.408028 0.000000
                    }
                }
            }
            JOINT LeftShoulder
            {
                OFFSET 6.992933 33.973492 -0.192664
                CHANNELS 3 Zrotation Xrotation Yrotation
                JOINT LeftArm
                {
                    OFFSET 21.527611 0.000000 0.000000
                    CHANNELS 3 Zrotation Xrotation Yrotation
                    JOINT LeftForeArm
                    {
                        OFFSET 56.353916 0.000000 0.000000
                        CHANNELS 3 Zrotation Xrotation Yrotation
                        JOINT LeftHand
                        {
                            OFFSET 47.774071 0.000000 0.000000
                            CHANNELS 3 Zrotation Xrotation Yrotation
                            End Site
                            {
                                OFFSET 26.556021 0.000000 0.000000
                            }
                        }
                    }
                }
            }
            JOINT RightShoulder
            {
                OFFSET -7.065357 33.973492 -0.192664
                CHANNELS 3 Zrotation Xrotation Yrotation
                JOINT RightArm
                {
                    OFFSET -21.527611 0.000000 0.000000
                    CHANNELS 3 Zrotation Xrotation Yrotation
                    JOINT RightForeArm
                    {
                        OFFSET -56.353916 0.000000 0.000000
                        CHANNELS 3 Zrotation Xrotation Yrotation
                        JOINT RightHand
                        {
                            OFFSET -47.774071 0.000000 0.000000
                            CHANNELS 3 Zrotation Xrotation Yrotation
                            End Site
                            {
                                OFFSET -26.556021 0.000000 0.000000
                            }
                        }
                    }
                }
            }
        }
    }
    JOINT LeftUpLeg
    {
        OFFSET 17.704014 0.000000 0.000000
        CHANNELS 3 Zrotation Xrotation Yrotation
        JOINT LeftLeg
        {
            OFFSET -0.000000 -81.181816 0.000000
            CHANNELS 3 Zrotation Xrotation Yrotation
            JOINT LeftFoot
            {
                OFFSET -0.000000 -62.821102 0.000000
                CHANNELS 3 Zrotation Xrotation Yrotation
                JOINT LeftToeBase
                {
                    OFFSET -0.000000 -11.507608 26.556021
                    CHANNELS 3 Zrotation Xrotation Yrotation
                    End Site
                    {
                        OFFSET -0.000000 0.000000 7.081605
                    }
                }
            }
        }
    }
    JOINT RightUpLeg
    {
        OFFSET -17.704014 0.000000 0.000000
        CHANNELS 3 Zrotation Xrotation Yrotation
        JOINT RightLeg
        {
            OFFSET -0.000000 -81.181816 0.000000
            CHANNELS 3 Zrotation Xrotation Yrotation
            JOINT RightFoot
            {
                OFFSET -0.000000 -62.821102 0.000000
                CHANNELS 3 Zrotation Xrotation Yrotation
                JOINT RightToeBase
                {
                    OFFSET -0.000000 -11.507608 26.556021
                    CHANNELS 3 Zrotation Xrotation Yrotation
                    End Site
                    {
                        OFFSET -0.000000 0.000000 7.081605
                    }
                }
            }
        }
    }
}
MOTION
Frames:    8
Frame Time:    0.008333
-10.614601    150.269135    -101.347504    1.645956    -5.576671    45.722191    -2.554286    0.124629    0.827683    0.211695    1.976231    0.270593    -1.450730    6.082461    -19.321560    16.274611    -0.391638    -17.698851    3.604934    7.926901    -14.255593    -34.615189    22.398705    -52.927155    1.117914    -33.543064    -116.705406    -10.240806    -30.907698    -14.449947    2.132300    8.134387    -6.125710    44.309086    -12.233282    47.455315    -52.673607    -47.856606    51.982090    -15.276284    -27.469683    15.963172    16.102211    -5.573827    -7.544854    -21.060375    45.989803    -18.712673    11.225068    -33.406403    54.513046    0.000000    0.000000    0.000000    -25.583099    -16.264772    -26.951946    10.286547    29.625612    -17.552410    5.811827    7.059417    -6.570149    0.000000    0.000000    0.000000    
-10.610415    150.270096    -101.332283    1.649122    -5.580383    45.740704    -2.559111    0.118124    0.825615    0.221713    1.979572    0.269848    -1.439965    6.071154    -19.325834    16.258249    -0.349494    -17.712471    3.610032    7.928699    -14.264377    -34.622139    22.397535    -52.892448    1.101160    -33.527199    -116.719490    -10.229372    -30.916822    -14.436768    2.177229    8.071321    -6.176396    44.329712    -12.287245    47.434093    -52.475231    -48.275497    52.292633    -14.565482    -27.845163    15.750516    16.107328    -5.563242    -7.553535    -21.049637    45.979115    -18.743687    11.233743    -33.405346    54.530266    0.000000    0.000000    0.000000    -25.586117    -16.251368    -26.948647    10.296183    29.634932    -17.571791    5.818322    7.051731    -6.572659    0.000000    0.000000    0.000000    
-10.606030    150.270370    -101.322952    1.652232    -5.582713    45.760239    -2.550575    0.115030    0.816886    0.209492    1.977454    0.267244    -1.429609    6.070897    -19.327881    16.259653    -0.317252    -17.719959    3.624599    7.932069    -14.272705    -34.648399    22.380808    -52.840805    1.093733    -33.482006    -116.728867    -10.211341    -30.882164    -14.438279    2.157436    8.137995    -6.099033    44.524918    -12.673813    47.394440    -52.185333    -48.494484    52.722939    -14.723230    -28.040768    15.447892    16.107752    -5.555498    -7.561628    -21.041496    45.967171    -18.747744    11.238808    -33.410679    54.522503    0.000000    0.000000    0.000000    -25.593878    -16.240383    -26.954632    10.297890    29.649487    -17.564369    5.835398    7.041253    -6.583536    0.000000    0.000000    0.000000    
-10.603915    150.272446    -101.312614    1.650750    -5.578182    45.775959    -2.553434    0.098750    0.813343    0.211029    1.981094    0.266074    -1.425686    6.075419    -19.336149    16.275373    -0.282920    -17.731745    3.636482    7.933257    -14.277991    -34.659618    22.385511    -52.807991    1.074667    -33.459553    -116.741699    -10.205697    -30.887115    -14.423587    2.171089    8.111161    -6.136765    44.588623    -12.823528    47.387280    -52.050556    -48.705975    52.925907    -14.779035    -28.263371    15.207748    16.114037    -5.553676    -7.565299    -21.043036    45.954792    -18.780050    11.256649    -33.398567    54.537628    0.000000    0.000000    0.000000    -25.603821    -16.238440    -26.948736    10.313890    29.660545    -17.568426    5.843357    7.037795    -6.602316    0.000000    0.000000    0.000000    
-10.598268    150.276031    -101.302422    1.664727    -5.580996    45.782051    -2.562731    0.097563    0.811569    0.214818    1.985616    0.265481    -1.418770    6.051622    -19.339626    16.264780    -0.203984    -17.748375    3.643277    7.935612    -14.281410    -34.669483    22.385609    -52.769180    1.067961    -33.428089    -116.741364    -10.169807    -30.868229    -14.421638    2.173426    8.068519    -6.146208    44.643394    -12.967588    47.340034    -51.932201    -48.861771    53.112598    -14.960636    -28.424715    14.948077    16.106737    -5.527050    -7.548418    -21.009043    45.936264    -18.817339    11.262042    -33.392067    54.526741    0.000000    0.000000    0.000000    -25.612978    -16.223896    -26.934477    10.326821    29.666864    -17.579140    5.857839    7.020377    -6.611922    0.000000    0.000000    0.000000    
-10.595417    150.279434    -101.295128    1.665211    -5.573970    45.788136    -2.566429    0.077932    0.805820    0.211208    1.994828    0.263810    -1.414490    6.024749    -19.341433    16.267099    -0.122911    -17.761465    3.652886    7.933073    -14.281900    -34.688026    22.393030    -52.728252    1.061518    -33.399807    -116.746689    -10.170340    -30.847654    -14.424903    2.184941    8.033340    -6.162202    44.696888    -13.113863    47.295162    -51.785824    -48.980858    53.326870    -15.067317    -28.540699    14.788176    16.103628    -5.522851    -7.537060    -20.990458    45.924553    -18.834879    11.251036    -33.393658    54.516865    0.000000    0.000000    0.000000    -25.621628    -16.221817    -26.936094    10.334450    29.669365    -17.600277    5.869743    7.020408    -6.600444    0.000000    0.000000    0.000000    
-10.593962    150.284225    -101.284721    1.670247    -5.580236    45.794819    -2.570832    0.082847    0.795926    0.224295    1.979972    0.260200    -1.435330    6.026850    -19.350246    16.294275    -0.052469    -17.774969    3.647016    7.953570    -14.281347    -34.691387    22.388594    -52.693085    1.039775    -33.370384    -116.764008    -10.178663    -30.848022    -14.402436    2.176902    8.005743    -6.173387    44.717880    -13.193283    47.240547    -51.743343    -49.054787    53.419445    -15.108535    -28.604099    14.682752    16.108500    -5.504366    -7.526866    -20.982502    45.904587    -18.842211    11.254186    -33.390091    54.513298    0.000000    0.000000    0.000000    -25.616234    -16.208031    -26.948675    10.323095    29.666433    -17.591694    5.858907    7.024081    -6.586853    0.000000    0.000000    0.000000    
-10.590742    150.287125    -101.279572    1.668753    -5.575604    45.798050    -2.565555    0.069767    0.787282    0.212610    1.973503    0.257661    -1.412802    5.999476    -19.354124    16.261171    0.031398    -17.797241    3.668190    7.956719    -14.282949    -34.722210    22.394440    -52.657124    1.034624    -33.346855    -116.764206    -10.172099    -30.832699    -14.389372    2.174456    7.982573    -6.197854    44.715984    -13.233246    47.200439    -51.762722    -49.103653    53.426517    -15.213373    -28.651491    14.557205    16.107254    -5.503639    -7.523479    -20.969862    45.900059    -18.873032    11.264861    -33.375835    54.514755    0.000000    0.000000    0.000000    -25.619040    -16.207062    -26.949352    10.324168    29.667706    -17.575933    5.874323    7.012128    -6.615021    0.000000    0.000000    0.000000    
